<?xml version="1.0" standalone="no"?>
<!DOCTYPE svg PUBLIC "-//W3C//DTD SVG 20010904//EN"
 "http://www.w3.org/TR/2001/REC-SVG-20010904/DTD/svg10.dtd">
<svg version="1.0" xmlns="http://www.w3.org/2000/svg"
 width="800.000000pt" height="800.000000pt" viewBox="0 0 800.000000 800.000000"
 preserveAspectRatio="xMidYMid meet">
<metadata>
Created by potrace 1.14, written by Peter Selinger 2001-2017
</metadata>
<g transform="translate(0.000000,800.000000) scale(0.100000,-0.100000)"
fill="#000000" stroke="none">
<path d="M3259 7486 c-4 -3 -47 -8 -184 -21 -27 -3 -63 -7 -80 -10 -16 -2 -48
-7 -70 -11 -226 -33 -521 -117 -775 -220 -114 -46 -413 -196 -430 -215 -3 -3
-12 -9 -20 -12 -40 -19 -311 -201 -344 -231 -6 -6 -42 -37 -81 -68 -195 -160
-395 -364 -535 -546 -14 -18 -33 -43 -43 -55 -32 -38 -202 -298 -249 -382 -25
-44 -71 -134 -102 -200 -75 -157 -70 -145 -111 -255 -20 -52 -42 -108 -48
-125 -7 -16 -12 -32 -12 -35 -1 -3 -10 -36 -22 -75 -23 -72 -51 -175 -58 -210
-3 -11 -9 -40 -15 -65 -11 -51 -19 -92 -25 -135 -3 -16 -7 -40 -9 -52 -3 -11
-7 -43 -11 -70 -4 -26 -8 -59 -11 -72 -18 -122 -26 -602 -11 -726 4 -33 10
-81 12 -107 4 -46 6 -58 26 -173 6 -33 12 -71 14 -85 8 -45 39 -174 71 -290
67 -246 216 -591 351 -811 l52 -86 -55 -144 c-30 -79 -59 -153 -64 -164 -4
-11 -22 -58 -40 -105 -18 -47 -36 -94 -40 -105 -5 -11 -18 -42 -29 -69 -12
-27 -21 -53 -21 -58 0 -6 -6 -24 -14 -41 -22 -49 -93 -238 -104 -277 -10 -33
-16 -79 -12 -90 1 -3 4 -18 6 -34 8 -49 55 -107 109 -135 l50 -26 760 1 c418
0 771 2 785 3 14 2 63 -15 110 -37 135 -63 204 -93 220 -97 8 -2 44 -15 79
-29 35 -14 109 -39 165 -56 55 -17 115 -35 131 -40 35 -10 243 -57 295 -65 19
-3 46 -8 60 -10 14 -2 39 -6 55 -9 17 -3 53 -8 80 -11 28 -3 77 -8 110 -12
134 -15 611 -8 725 11 14 3 48 7 75 10 28 4 61 8 75 11 14 3 36 6 50 9 14 2
36 7 50 10 14 3 36 8 50 10 25 5 56 11 95 20 201 45 504 153 703 250 75 37 91
42 122 35 19 -5 364 -9 765 -8 826 0 795 -3 871 76 39 39 52 71 59 138 3 30
-85 289 -136 400 -5 11 -49 126 -98 255 -49 129 -103 267 -119 307 l-29 71 40
69 c55 94 146 262 158 296 6 15 14 27 17 27 4 0 27 -37 52 -81 25 -44 57 -90
72 -104 104 -94 252 -78 325 34 18 27 33 53 33 57 0 4 9 26 19 48 11 23 36 82
56 131 21 50 45 108 55 130 10 22 37 85 60 140 23 55 47 114 55 130 7 17 57
134 110 260 54 127 147 345 206 485 60 140 109 260 109 267 0 7 5 13 10 13 6
0 10 5 10 12 0 6 30 82 67 167 118 278 123 304 80 404 -38 88 -98 111 -367
142 -115 13 -228 26 -260 31 -33 5 -50 7 -152 19 -24 3 -81 10 -128 15 -90 11
-157 18 -177 19 -7 1 -18 20 -24 44 -76 271 -148 458 -270 700 -77 154 -221
385 -303 488 -12 14 -32 41 -46 59 -145 197 -398 449 -618 618 -48 36 -89 69
-92 72 -7 7 -207 137 -290 187 -80 49 -260 140 -360 182 -41 18 -84 36 -95 41
-83 37 -363 128 -445 144 -14 3 -36 8 -50 11 -14 4 -56 13 -95 21 -163 33
-192 38 -305 49 -36 4 -76 9 -90 12 -27 5 -536 14 -541 9z"/>
</g>
</svg>
