<svg width="800" height="736" viewBox="0 0 800 736" fill="none" xmlns="http://www.w3.org/2000/svg">
<path d="M769.116 232.114L769.248 233.605L769.529 235.075C769.458 234.705 769.468 234.825 769.518 235.415C769.862 239.48 772.093 265.839 762.855 308.206C747.051 380.616 699.415 438.12 661.688 477.599L401.207 704.852C401.207 704.852 401.206 704.853 401.206 704.853C400.606 705.376 399.852 705.657 399.034 705.657C398.208 705.657 397.452 705.361 396.894 704.869L396.87 704.848L396.847 704.827L139.886 478.938C87.8156 431.698 52.6895 372.776 37.4335 308.286C27.162 264.508 30.2711 237.8 31.044 232.575L31.1625 231.773L31.2376 230.966C42.371 111.396 126.406 30.3433 226.376 30.3433C285.14 30.3433 338.43 57.7518 374.359 105.145L397.932 136.241L421.925 105.467C458.538 58.5042 514.118 30.3433 573.888 30.3433C674.185 30.3433 758.401 111.865 769.116 232.114Z" stroke="#94A2B8" stroke-width="60"/>
</svg>
